<?xml version="1.0" standalone="no"?>
<!DOCTYPE svg PUBLIC "-//W3C//DTD SVG 20010904//EN"
 "http://www.w3.org/TR/2001/REC-SVG-20010904/DTD/svg10.dtd">
<svg version="1.0" xmlns="http://www.w3.org/2000/svg"
 width="24.000000pt" height="24.000000pt" viewBox="0 0 24.000000 24.000000"
 preserveAspectRatio="xMidYMid meet">

<g transform="translate(0.000000,24.000000) scale(0.100000,-0.100000)"
fill="#000000" stroke="none">
<path d="M20 202 c0 -4 23 -30 50 -57 l50 -49 50 49 c27 26 47 52 44 57 -7 10
-194 11 -194 0z"/>
<path d="M0 120 l0 -75 37 38 38 37 -38 37 -37 38 0 -75z"/>
<path d="M200 155 l-34 -35 37 -38 37 -37 0 73 c0 39 -1 72 -3 72 -2 0 -18
-16 -37 -35z"/>
<path d="M50 75 l-34 -35 104 0 104 0 -34 35 c-30 31 -35 33 -53 20 -18 -13
-23 -13 -37 0 -15 13 -20 11 -50 -20z"/>
</g>
</svg>
